<?xml version="1.0" encoding="UTF-8"?>
<!DOCTYPE svg PUBLIC "-//W3C//DTD SVG 1.1//EN" "http://www.w3.org/Graphics/SVG/1.1/DTD/svg11.dtd">
<svg width="130mm" height="87mm" viewBox="0 0 13000 8700" version="1.1" xmlns="http://www.w3.org/2000/svg" xmlns:xlink="http://www.w3.org/1999/xlink" stroke-width="28.222" stroke-linejoin="round" xml:space="preserve">
 <path fill="rgb(255,255,255)" stroke="none" d="M 6509,8746 L 0,8746 0,0 13017,0 13017,8746 6509,8746 Z"/>
 <path fill="none" stroke="rgb(179,179,179)" stroke-linejoin="round" d="M 6180,7527 L 2078,7527 2078,2319 10282,2319 10282,7527 6180,7527 Z"/>
 <path fill="none" stroke="rgb(179,179,179)" stroke-linejoin="round" d="M 10282,7526 L 2078,7526"/>
 <path fill="none" stroke="rgb(179,179,179)" stroke-linejoin="round" d="M 10282,6781 L 2078,6781"/>
 <path fill="none" stroke="rgb(179,179,179)" stroke-linejoin="round" d="M 10282,6037 L 2078,6037"/>
 <path fill="none" stroke="rgb(179,179,179)" stroke-linejoin="round" d="M 10282,5293 L 2078,5293"/>
 <path fill="none" stroke="rgb(179,179,179)" stroke-linejoin="round" d="M 10282,4549 L 2078,4549"/>
 <path fill="none" stroke="rgb(179,179,179)" stroke-linejoin="round" d="M 10282,3806 L 2078,3806"/>
 <path fill="none" stroke="rgb(179,179,179)" stroke-linejoin="round" d="M 10282,3062 L 2078,3062"/>
 <path fill="none" stroke="rgb(179,179,179)" stroke-linejoin="round" d="M 10282,2317 L 2078,2317"/>
 <path fill="none" stroke="rgb(179,179,179)" stroke-linejoin="round" d="M 2078,8074 L 2078,7526"/>
 <path fill="none" stroke="rgb(179,179,179)" stroke-linejoin="round" d="M 4813,8074 L 4813,7526"/>
 <path fill="none" stroke="rgb(179,179,179)" stroke-linejoin="round" d="M 7547,8074 L 7547,7526"/>
 <path fill="none" stroke="rgb(179,179,179)" stroke-linejoin="round" d="M 10282,8074 L 10282,7526"/>
 <path fill="none" stroke="rgb(179,179,179)" stroke-linejoin="round" d="M 2078,8472 L 2078,7526"/>
 <path fill="none" stroke="rgb(179,179,179)" stroke-linejoin="round" d="M 4813,8472 L 4813,7526"/>
 <path fill="none" stroke="rgb(179,179,179)" stroke-linejoin="round" d="M 7547,8472 L 7547,7526"/>
 <path fill="none" stroke="rgb(179,179,179)" stroke-linejoin="round" d="M 10282,8472 L 10282,7526"/>
 <path fill="none" stroke="rgb(179,179,179)" stroke-linejoin="round" d="M 2078,7676 L 2078,7526"/>
 <path fill="none" stroke="rgb(179,179,179)" stroke-linejoin="round" d="M 2078,7676 L 2078,7526"/>
 <path fill="none" stroke="rgb(179,179,179)" stroke-linejoin="round" d="M 4813,7676 L 4813,7526"/>
 <path fill="none" stroke="rgb(179,179,179)" stroke-linejoin="round" d="M 4813,7676 L 4813,7526"/>
 <path fill="none" stroke="rgb(179,179,179)" stroke-linejoin="round" d="M 7547,7676 L 7547,7526"/>
 <path fill="none" stroke="rgb(179,179,179)" stroke-linejoin="round" d="M 7547,7676 L 7547,7526"/>
 <path fill="none" stroke="rgb(179,179,179)" stroke-linejoin="round" d="M 10282,7676 L 10282,7526"/>
 <path fill="none" stroke="rgb(179,179,179)" stroke-linejoin="round" d="M 10282,7676 L 10282,7526"/>
 <path fill="none" stroke="rgb(179,179,179)" stroke-linejoin="round" d="M 2078,7526 L 10282,7526"/>
 <path fill="none" stroke="rgb(179,179,179)" stroke-linejoin="round" d="M 1928,7526 L 2078,7526"/>
 <path fill="none" stroke="rgb(179,179,179)" stroke-linejoin="round" d="M 1928,7526 L 2078,7526"/>
 <path fill="none" stroke="rgb(179,179,179)" stroke-linejoin="round" d="M 1928,6781 L 2078,6781"/>
 <path fill="none" stroke="rgb(179,179,179)" stroke-linejoin="round" d="M 1928,6781 L 2078,6781"/>
 <path fill="none" stroke="rgb(179,179,179)" stroke-linejoin="round" d="M 1928,6037 L 2078,6037"/>
 <path fill="none" stroke="rgb(179,179,179)" stroke-linejoin="round" d="M 1928,6037 L 2078,6037"/>
 <path fill="none" stroke="rgb(179,179,179)" stroke-linejoin="round" d="M 1928,5293 L 2078,5293"/>
 <path fill="none" stroke="rgb(179,179,179)" stroke-linejoin="round" d="M 1928,5293 L 2078,5293"/>
 <path fill="none" stroke="rgb(179,179,179)" stroke-linejoin="round" d="M 1928,4549 L 2078,4549"/>
 <path fill="none" stroke="rgb(179,179,179)" stroke-linejoin="round" d="M 1928,4549 L 2078,4549"/>
 <path fill="none" stroke="rgb(179,179,179)" stroke-linejoin="round" d="M 1928,3806 L 2078,3806"/>
 <path fill="none" stroke="rgb(179,179,179)" stroke-linejoin="round" d="M 1928,3806 L 2078,3806"/>
 <path fill="none" stroke="rgb(179,179,179)" stroke-linejoin="round" d="M 1928,3062 L 2078,3062"/>
 <path fill="none" stroke="rgb(179,179,179)" stroke-linejoin="round" d="M 1928,3062 L 2078,3062"/>
 <path fill="none" stroke="rgb(179,179,179)" stroke-linejoin="round" d="M 1928,2317 L 2078,2317"/>
 <path fill="none" stroke="rgb(179,179,179)" stroke-linejoin="round" d="M 1928,2317 L 2078,2317"/>
 <path fill="none" stroke="rgb(179,179,179)" stroke-linejoin="round" d="M 2078,7526 L 2078,2317"/>
 <path fill="rgb(0,69,134)" stroke="none" d="M 8002,7526 L 8914,7526 8914,7328 8002,7328 8002,7526 Z"/>
 <path fill="rgb(0,69,134)" stroke="none" d="M 5268,7526 L 6180,7526 6180,7217 5268,7217 5268,7526 Z"/>
 <path fill="rgb(0,69,134)" stroke="none" d="M 2533,7526 L 3445,7526 3445,6733 2533,6733 2533,7526 Z"/>
 <path fill="rgb(255,66,14)" stroke="none" d="M 8914,7526 L 9826,7526 9826,3292 8914,3292 8914,7526 Z"/>
 <path fill="rgb(255,66,14)" stroke="none" d="M 6180,7526 L 7091,7526 7091,3423 6180,3423 6180,7526 Z"/>
 <path fill="rgb(255,66,14)" stroke="none" d="M 3445,7526 L 4357,7526 4357,2954 3445,2954 3445,7526 Z"/>
 <text class="TextShape"><tspan class="TextParagraph" font-family="Liberation Sans, sans-serif" font-size="353px" font-weight="400"><tspan class="TextPosition" x="2611" y="8094"><tspan fill="rgb(0,0,0)" stroke="none">1920x1080</tspan></tspan></tspan></text>
 <text class="TextShape"><tspan class="TextParagraph" font-family="Liberation Sans, sans-serif" font-size="353px" font-weight="400"><tspan class="TextPosition" x="5346" y="8094"><tspan fill="rgb(0,0,0)" stroke="none">1920x1080</tspan></tspan></tspan></text>
 <text class="TextShape"><tspan class="TextParagraph" font-family="Liberation Sans, sans-serif" font-size="353px" font-weight="400"><tspan class="TextPosition" x="8081" y="8094"><tspan fill="rgb(0,0,0)" stroke="none">1920x1080</tspan></tspan></tspan></text>
 <text class="TextShape"><tspan class="TextParagraph" font-family="Liberation Sans, sans-serif" font-size="353px" font-weight="400"><tspan class="TextPosition" x="2982" y="8492"><tspan fill="rgb(0,0,0)" stroke="none">16x16</tspan></tspan></tspan></text>
 <text class="TextShape"><tspan class="TextParagraph" font-family="Liberation Sans, sans-serif" font-size="353px" font-weight="400"><tspan class="TextPosition" x="5717" y="8492"><tspan fill="rgb(0,0,0)" stroke="none">24x24</tspan></tspan></tspan></text>
 <text class="TextShape"><tspan class="TextParagraph" font-family="Liberation Sans, sans-serif" font-size="353px" font-weight="400"><tspan class="TextPosition" x="8452" y="8492"><tspan fill="rgb(0,0,0)" stroke="none">32x32</tspan></tspan></tspan></text>
 <text class="TextShape"><tspan class="TextParagraph" font-family="Liberation Sans, sans-serif" font-size="353px" font-weight="400"><tspan class="TextPosition" x="1643" y="7647"><tspan fill="rgb(0,0,0)" stroke="none">0</tspan></tspan></tspan></text>
 <text class="TextShape"><tspan class="TextParagraph" font-family="Liberation Sans, sans-serif" font-size="353px" font-weight="400"><tspan class="TextPosition" x="1458" y="6902"><tspan fill="rgb(0,0,0)" stroke="none">20</tspan></tspan></tspan></text>
 <text class="TextShape"><tspan class="TextParagraph" font-family="Liberation Sans, sans-serif" font-size="353px" font-weight="400"><tspan class="TextPosition" x="1458" y="6158"><tspan fill="rgb(0,0,0)" stroke="none">40</tspan></tspan></tspan></text>
 <text class="TextShape"><tspan class="TextParagraph" font-family="Liberation Sans, sans-serif" font-size="353px" font-weight="400"><tspan class="TextPosition" x="1458" y="5414"><tspan fill="rgb(0,0,0)" stroke="none">60</tspan></tspan></tspan></text>
 <text class="TextShape"><tspan class="TextParagraph" font-family="Liberation Sans, sans-serif" font-size="353px" font-weight="400"><tspan class="TextPosition" x="1458" y="4670"><tspan fill="rgb(0,0,0)" stroke="none">80</tspan></tspan></tspan></text>
 <text class="TextShape"><tspan class="TextParagraph" font-family="Liberation Sans, sans-serif" font-size="353px" font-weight="400"><tspan class="TextPosition" x="1272" y="3926"><tspan fill="rgb(0,0,0)" stroke="none">100</tspan></tspan></tspan></text>
 <text class="TextShape"><tspan class="TextParagraph" font-family="Liberation Sans, sans-serif" font-size="353px" font-weight="400"><tspan class="TextPosition" x="1272" y="3182"><tspan fill="rgb(0,0,0)" stroke="none">120</tspan></tspan></tspan></text>
 <text class="TextShape"><tspan class="TextParagraph" font-family="Liberation Sans, sans-serif" font-size="353px" font-weight="400"><tspan class="TextPosition" x="1272" y="2437"><tspan fill="rgb(0,0,0)" stroke="none">140</tspan></tspan></tspan></text>
 <text class="TextShape"><tspan class="TextParagraph" font-family="Liberation Sans, sans-serif" font-size="353px" font-weight="400"><tspan class="TextPosition" x="2658" y="6555"><tspan fill="rgb(0,0,0)" stroke="none">21.3</tspan></tspan></tspan></text>
 <text class="TextShape"><tspan class="TextParagraph" font-family="Liberation Sans, sans-serif" font-size="353px" font-weight="400"><tspan class="TextPosition" x="5486" y="7039"><tspan fill="rgb(0,0,0)" stroke="none">8.3</tspan></tspan></tspan></text>
 <text class="TextShape"><tspan class="TextParagraph" font-family="Liberation Sans, sans-serif" font-size="353px" font-weight="400"><tspan class="TextPosition" x="8221" y="7150"><tspan fill="rgb(0,0,0)" stroke="none">5.3</tspan></tspan></tspan></text>
 <text class="TextShape"><tspan class="TextParagraph" font-family="Liberation Sans, sans-serif" font-size="353px" font-weight="400"><tspan class="TextPosition" x="3623" y="2776"><tspan fill="rgb(0,0,0)" stroke="none">123</tspan></tspan></tspan></text>
 <text class="TextShape"><tspan class="TextParagraph" font-family="Liberation Sans, sans-serif" font-size="353px" font-weight="400"><tspan class="TextPosition" x="6358" y="3245"><tspan fill="rgb(0,0,0)" stroke="none">110</tspan></tspan></tspan></text>
 <text class="TextShape"><tspan class="TextParagraph" font-family="Liberation Sans, sans-serif" font-size="353px" font-weight="400"><tspan class="TextPosition" x="9093" y="3114"><tspan fill="rgb(0,0,0)" stroke="none">114</tspan></tspan></tspan></text>
 <text class="TextShape"><tspan class="TextParagraph" font-family="Liberation Sans, sans-serif" font-size="459px" font-weight="400"><tspan class="TextPosition" x="2752" y="845"><tspan fill="rgb(0,0,0)" stroke="none">Motion Estimation and Rendering FPS</tspan></tspan></tspan></text>
 <text class="TextShape"><tspan class="TextParagraph" font-family="Liberation Sans, sans-serif" font-size="388px" font-weight="400"><tspan class="TextPosition" x="5371" y="1749"><tspan fill="rgb(0,0,0)" stroke="none">by block size</tspan></tspan></tspan></text>
 <path fill="rgb(0,69,134)" stroke="none" d="M 10764,4229 L 10658,4229 10658,4018 10869,4018 10869,4229 10764,4229 Z"/>
 <path fill="rgb(255,66,14)" stroke="none" d="M 10764,4726 L 10658,4726 10658,4515 10869,4515 10869,4726 10764,4726 Z"/>
 <text class="TextShape"><tspan class="TextParagraph" font-family="Liberation Sans, sans-serif" font-size="353px" font-weight="400"><tspan class="TextPosition" x="10969" y="4243"><tspan fill="rgb(0,0,0)" stroke="none">Exhaustive</tspan></tspan></tspan></text>
 <text class="TextShape"><tspan class="TextParagraph" font-family="Liberation Sans, sans-serif" font-size="353px" font-weight="400"><tspan class="TextPosition" x="10969" y="4740"><tspan fill="rgb(0,0,0)" stroke="none">Diamond</tspan></tspan></tspan></text>
 <text class="TextShape" transform="rotate(-90 837 5650)"><tspan class="TextParagraph" font-family="Liberation Sans, sans-serif" font-size="318px" font-weight="400"><tspan class="TextPosition" x="837" y="5650"><tspan fill="rgb(0,0,0)" stroke="none">FPS</tspan></tspan></tspan></text>
</svg>