<?xml version="1.0" encoding="UTF-8"?>
<!DOCTYPE svg PUBLIC "-//W3C//DTD SVG 1.1//EN" "http://www.w3.org/Graphics/SVG/1.1/DTD/svg11.dtd">
<svg width="137mm" height="94mm" viewBox="0 0 13700 9400" version="1.1" xmlns="http://www.w3.org/2000/svg" xmlns:xlink="http://www.w3.org/1999/xlink" stroke-width="28.222" stroke-linejoin="round" xml:space="preserve">
 <path fill="rgb(255,255,255)" stroke="none" d="M 6842,9410 L 0,9410 0,0 13683,0 13683,9410 6842,9410 Z"/>
 <path fill="none" stroke="rgb(179,179,179)" stroke-linejoin="round" d="M 6513,8177 L 2091,8177 2091,2361 10935,2361 10935,8177 6513,8177 Z"/>
 <path fill="none" stroke="rgb(179,179,179)" stroke-linejoin="round" d="M 10935,8176 L 2091,8176"/>
 <path fill="none" stroke="rgb(179,179,179)" stroke-linejoin="round" d="M 10935,7345 L 2091,7345"/>
 <path fill="none" stroke="rgb(179,179,179)" stroke-linejoin="round" d="M 10935,6514 L 2091,6514"/>
 <path fill="none" stroke="rgb(179,179,179)" stroke-linejoin="round" d="M 10935,5683 L 2091,5683"/>
 <path fill="none" stroke="rgb(179,179,179)" stroke-linejoin="round" d="M 10935,4852 L 2091,4852"/>
 <path fill="none" stroke="rgb(179,179,179)" stroke-linejoin="round" d="M 10935,4022 L 2091,4022"/>
 <path fill="none" stroke="rgb(179,179,179)" stroke-linejoin="round" d="M 10935,3191 L 2091,3191"/>
 <path fill="none" stroke="rgb(179,179,179)" stroke-linejoin="round" d="M 10935,2360 L 2091,2360"/>
 <path fill="none" stroke="rgb(179,179,179)" stroke-linejoin="round" d="M 2091,8724 L 2091,8176"/>
 <path fill="none" stroke="rgb(179,179,179)" stroke-linejoin="round" d="M 4302,8724 L 4302,8176"/>
 <path fill="none" stroke="rgb(179,179,179)" stroke-linejoin="round" d="M 6513,8724 L 6513,8176"/>
 <path fill="none" stroke="rgb(179,179,179)" stroke-linejoin="round" d="M 8723,8724 L 8723,8176"/>
 <path fill="none" stroke="rgb(179,179,179)" stroke-linejoin="round" d="M 10935,8724 L 10935,8176"/>
 <path fill="none" stroke="rgb(179,179,179)" stroke-linejoin="round" d="M 2091,9122 L 2091,8176"/>
 <path fill="none" stroke="rgb(179,179,179)" stroke-linejoin="round" d="M 4302,9122 L 4302,8176"/>
 <path fill="none" stroke="rgb(179,179,179)" stroke-linejoin="round" d="M 6513,9122 L 6513,8176"/>
 <path fill="none" stroke="rgb(179,179,179)" stroke-linejoin="round" d="M 8723,9122 L 8723,8176"/>
 <path fill="none" stroke="rgb(179,179,179)" stroke-linejoin="round" d="M 10935,9122 L 10935,8176"/>
 <path fill="none" stroke="rgb(179,179,179)" stroke-linejoin="round" d="M 2091,8326 L 2091,8176"/>
 <path fill="none" stroke="rgb(179,179,179)" stroke-linejoin="round" d="M 2091,8326 L 2091,8176"/>
 <path fill="none" stroke="rgb(179,179,179)" stroke-linejoin="round" d="M 4302,8326 L 4302,8176"/>
 <path fill="none" stroke="rgb(179,179,179)" stroke-linejoin="round" d="M 4302,8326 L 4302,8176"/>
 <path fill="none" stroke="rgb(179,179,179)" stroke-linejoin="round" d="M 6513,8326 L 6513,8176"/>
 <path fill="none" stroke="rgb(179,179,179)" stroke-linejoin="round" d="M 6513,8326 L 6513,8176"/>
 <path fill="none" stroke="rgb(179,179,179)" stroke-linejoin="round" d="M 8723,8326 L 8723,8176"/>
 <path fill="none" stroke="rgb(179,179,179)" stroke-linejoin="round" d="M 8723,8326 L 8723,8176"/>
 <path fill="none" stroke="rgb(179,179,179)" stroke-linejoin="round" d="M 10935,8326 L 10935,8176"/>
 <path fill="none" stroke="rgb(179,179,179)" stroke-linejoin="round" d="M 10935,8326 L 10935,8176"/>
 <path fill="none" stroke="rgb(179,179,179)" stroke-linejoin="round" d="M 2091,8176 L 10935,8176"/>
 <path fill="none" stroke="rgb(179,179,179)" stroke-linejoin="round" d="M 1941,8176 L 2091,8176"/>
 <path fill="none" stroke="rgb(179,179,179)" stroke-linejoin="round" d="M 1941,8176 L 2091,8176"/>
 <path fill="none" stroke="rgb(179,179,179)" stroke-linejoin="round" d="M 1941,7345 L 2091,7345"/>
 <path fill="none" stroke="rgb(179,179,179)" stroke-linejoin="round" d="M 1941,7345 L 2091,7345"/>
 <path fill="none" stroke="rgb(179,179,179)" stroke-linejoin="round" d="M 1941,6514 L 2091,6514"/>
 <path fill="none" stroke="rgb(179,179,179)" stroke-linejoin="round" d="M 1941,6514 L 2091,6514"/>
 <path fill="none" stroke="rgb(179,179,179)" stroke-linejoin="round" d="M 1941,5683 L 2091,5683"/>
 <path fill="none" stroke="rgb(179,179,179)" stroke-linejoin="round" d="M 1941,5683 L 2091,5683"/>
 <path fill="none" stroke="rgb(179,179,179)" stroke-linejoin="round" d="M 1941,4852 L 2091,4852"/>
 <path fill="none" stroke="rgb(179,179,179)" stroke-linejoin="round" d="M 1941,4852 L 2091,4852"/>
 <path fill="none" stroke="rgb(179,179,179)" stroke-linejoin="round" d="M 1941,4022 L 2091,4022"/>
 <path fill="none" stroke="rgb(179,179,179)" stroke-linejoin="round" d="M 1941,4022 L 2091,4022"/>
 <path fill="none" stroke="rgb(179,179,179)" stroke-linejoin="round" d="M 1941,3191 L 2091,3191"/>
 <path fill="none" stroke="rgb(179,179,179)" stroke-linejoin="round" d="M 1941,3191 L 2091,3191"/>
 <path fill="none" stroke="rgb(179,179,179)" stroke-linejoin="round" d="M 1941,2360 L 2091,2360"/>
 <path fill="none" stroke="rgb(179,179,179)" stroke-linejoin="round" d="M 1941,2360 L 2091,2360"/>
 <path fill="none" stroke="rgb(179,179,179)" stroke-linejoin="round" d="M 2091,8176 L 2091,2360"/>
 <path fill="rgb(0,69,134)" stroke="none" d="M 9092,8176 L 9829,8176 9829,7998 9092,7998 9092,8176 Z"/>
 <path fill="rgb(0,69,134)" stroke="none" d="M 6881,8176 L 7618,8176 7618,7793 6881,7793 6881,8176 Z"/>
 <path fill="rgb(0,69,134)" stroke="none" d="M 4670,8176 L 5407,8176 5407,7279 4670,7279 4670,8176 Z"/>
 <path fill="rgb(0,69,134)" stroke="none" d="M 2459,8176 L 3196,8176 3196,6645 2459,6645 2459,8176 Z"/>
 <path fill="rgb(255,66,14)" stroke="none" d="M 9829,8176 L 10566,8176 10566,7154 9829,7154 9829,8176 Z"/>
 <path fill="rgb(255,66,14)" stroke="none" d="M 7618,8176 L 8355,8176 8355,6197 7618,6197 7618,8176 Z"/>
 <path fill="rgb(255,66,14)" stroke="none" d="M 5407,8176 L 6144,8176 6144,4850 5407,4850 5407,8176 Z"/>
 <path fill="rgb(255,66,14)" stroke="none" d="M 3196,8176 L 3933,8176 3933,3174 3196,3174 3196,8176 Z"/>
 <text class="TextShape"><tspan class="TextParagraph" font-family="Liberation Sans, sans-serif" font-size="353px" font-weight="400"><tspan class="TextPosition" x="2548" y="8744"><tspan fill="rgb(0,0,0)" stroke="none">570x340</tspan></tspan></tspan></text>
 <text class="TextShape"><tspan class="TextParagraph" font-family="Liberation Sans, sans-serif" font-size="353px" font-weight="400"><tspan class="TextPosition" x="4759" y="8744"><tspan fill="rgb(0,0,0)" stroke="none">960x402</tspan></tspan></tspan></text>
 <text class="TextShape"><tspan class="TextParagraph" font-family="Liberation Sans, sans-serif" font-size="353px" font-weight="400"><tspan class="TextPosition" x="6878" y="8744"><tspan fill="rgb(0,0,0)" stroke="none">1280x720</tspan></tspan></tspan></text>
 <text class="TextShape"><tspan class="TextParagraph" font-family="Liberation Sans, sans-serif" font-size="353px" font-weight="400"><tspan class="TextPosition" x="8996" y="8744"><tspan fill="rgb(0,0,0)" stroke="none">1920x1080</tspan></tspan></tspan></text>
 <text class="TextShape"><tspan class="TextParagraph" font-family="Liberation Sans, sans-serif" font-size="353px" font-weight="400"><tspan class="TextPosition" x="2733" y="9142"><tspan fill="rgb(0,0,0)" stroke="none">16x16</tspan></tspan></tspan></text>
 <text class="TextShape"><tspan class="TextParagraph" font-family="Liberation Sans, sans-serif" font-size="353px" font-weight="400"><tspan class="TextPosition" x="4944" y="9142"><tspan fill="rgb(0,0,0)" stroke="none">16x16</tspan></tspan></tspan></text>
 <text class="TextShape"><tspan class="TextParagraph" font-family="Liberation Sans, sans-serif" font-size="353px" font-weight="400"><tspan class="TextPosition" x="7156" y="9142"><tspan fill="rgb(0,0,0)" stroke="none">16x16</tspan></tspan></tspan></text>
 <text class="TextShape"><tspan class="TextParagraph" font-family="Liberation Sans, sans-serif" font-size="353px" font-weight="400"><tspan class="TextPosition" x="9367" y="9142"><tspan fill="rgb(0,0,0)" stroke="none">16x16</tspan></tspan></tspan></text>
 <text class="TextShape"><tspan class="TextParagraph" font-family="Liberation Sans, sans-serif" font-size="353px" font-weight="400"><tspan class="TextPosition" x="1656" y="8297"><tspan fill="rgb(0,0,0)" stroke="none">0</tspan></tspan></tspan></text>
 <text class="TextShape"><tspan class="TextParagraph" font-family="Liberation Sans, sans-serif" font-size="353px" font-weight="400"><tspan class="TextPosition" x="1285" y="7466"><tspan fill="rgb(0,0,0)" stroke="none">100</tspan></tspan></tspan></text>
 <text class="TextShape"><tspan class="TextParagraph" font-family="Liberation Sans, sans-serif" font-size="353px" font-weight="400"><tspan class="TextPosition" x="1285" y="6635"><tspan fill="rgb(0,0,0)" stroke="none">200</tspan></tspan></tspan></text>
 <text class="TextShape"><tspan class="TextParagraph" font-family="Liberation Sans, sans-serif" font-size="353px" font-weight="400"><tspan class="TextPosition" x="1285" y="5804"><tspan fill="rgb(0,0,0)" stroke="none">300</tspan></tspan></tspan></text>
 <text class="TextShape"><tspan class="TextParagraph" font-family="Liberation Sans, sans-serif" font-size="353px" font-weight="400"><tspan class="TextPosition" x="1285" y="4973"><tspan fill="rgb(0,0,0)" stroke="none">400</tspan></tspan></tspan></text>
 <text class="TextShape"><tspan class="TextParagraph" font-family="Liberation Sans, sans-serif" font-size="353px" font-weight="400"><tspan class="TextPosition" x="1285" y="4142"><tspan fill="rgb(0,0,0)" stroke="none">500</tspan></tspan></tspan></text>
 <text class="TextShape"><tspan class="TextParagraph" font-family="Liberation Sans, sans-serif" font-size="353px" font-weight="400"><tspan class="TextPosition" x="1285" y="3311"><tspan fill="rgb(0,0,0)" stroke="none">600</tspan></tspan></tspan></text>
 <text class="TextShape"><tspan class="TextParagraph" font-family="Liberation Sans, sans-serif" font-size="353px" font-weight="400"><tspan class="TextPosition" x="1285" y="2480"><tspan fill="rgb(0,0,0)" stroke="none">700</tspan></tspan></tspan></text>
 <text class="TextShape"><tspan class="TextParagraph" font-family="Liberation Sans, sans-serif" font-size="459px" font-weight="400"><tspan class="TextPosition" x="3085" y="859"><tspan fill="rgb(0,0,0)" stroke="none">Motion Estimation and Rendering FPS</tspan></tspan></tspan></text>
 <text class="TextShape"><tspan class="TextParagraph" font-family="Liberation Sans, sans-serif" font-size="388px" font-weight="400"><tspan class="TextPosition" x="4778" y="1777"><tspan fill="rgb(0,0,0)" stroke="none">by block search method</tspan></tspan></tspan></text>
 <path fill="rgb(0,69,134)" stroke="none" d="M 11430,4561 L 11324,4561 11324,4350 11535,4350 11535,4561 11430,4561 Z"/>
 <path fill="rgb(255,66,14)" stroke="none" d="M 11430,5058 L 11324,5058 11324,4847 11535,4847 11535,5058 11430,5058 Z"/>
 <text class="TextShape"><tspan class="TextParagraph" font-family="Liberation Sans, sans-serif" font-size="353px" font-weight="400"><tspan class="TextPosition" x="11635" y="4575"><tspan fill="rgb(0,0,0)" stroke="none">Exhaustive</tspan></tspan></tspan></text>
 <text class="TextShape"><tspan class="TextParagraph" font-family="Liberation Sans, sans-serif" font-size="353px" font-weight="400"><tspan class="TextPosition" x="11635" y="5072"><tspan fill="rgb(0,0,0)" stroke="none">Diamond</tspan></tspan></tspan></text>
 <text class="TextShape" transform="rotate(-90 837 5996)"><tspan class="TextParagraph" font-family="Liberation Sans, sans-serif" font-size="318px" font-weight="400"><tspan class="TextPosition" x="837" y="5996"><tspan fill="rgb(0,0,0)" stroke="none">FPS</tspan></tspan></tspan></text>
</svg>