<?xml version="1.0" encoding="UTF-8"?>
<!DOCTYPE svg PUBLIC "-//W3C//DTD SVG 1.1//EN" "http://www.w3.org/Graphics/SVG/1.1/DTD/svg11.dtd">
<svg width="135mm" height="105mm" viewBox="0 0 13500 10500" version="1.1" xmlns="http://www.w3.org/2000/svg" xmlns:xlink="http://www.w3.org/1999/xlink" stroke-width="28.222" stroke-linejoin="round" xml:space="preserve">
 <path fill="rgb(255,255,255)" stroke="none" d="M 6756,10525 L 0,10525 0,0 13511,0 13511,10525 6756,10525 Z"/>
 <path fill="none" stroke="rgb(179,179,179)" stroke-linejoin="round" d="M 7664,8474 L 2088,8474 2088,2427 13241,2427 13241,8474 7664,8474 Z"/>
 <path fill="none" stroke="rgb(179,179,179)" stroke-linejoin="round" d="M 13241,8473 L 2088,8473"/>
 <path fill="none" stroke="rgb(179,179,179)" stroke-linejoin="round" d="M 13241,7609 L 2088,7609"/>
 <path fill="none" stroke="rgb(179,179,179)" stroke-linejoin="round" d="M 13241,6745 L 2088,6745"/>
 <path fill="none" stroke="rgb(179,179,179)" stroke-linejoin="round" d="M 13241,5881 L 2088,5881"/>
 <path fill="none" stroke="rgb(179,179,179)" stroke-linejoin="round" d="M 13241,5018 L 2088,5018"/>
 <path fill="none" stroke="rgb(179,179,179)" stroke-linejoin="round" d="M 13241,4154 L 2088,4154"/>
 <path fill="none" stroke="rgb(179,179,179)" stroke-linejoin="round" d="M 13241,3290 L 2088,3290"/>
 <path fill="none" stroke="rgb(179,179,179)" stroke-linejoin="round" d="M 13241,2426 L 2088,2426"/>
 <path fill="none" stroke="rgb(221,221,221)" stroke-linejoin="round" d="M 13241,8041 L 2088,8041"/>
 <path fill="none" stroke="rgb(221,221,221)" stroke-linejoin="round" d="M 13241,7177 L 2088,7177"/>
 <path fill="none" stroke="rgb(221,221,221)" stroke-linejoin="round" d="M 13241,6313 L 2088,6313"/>
 <path fill="none" stroke="rgb(221,221,221)" stroke-linejoin="round" d="M 13241,5449 L 2088,5449"/>
 <path fill="none" stroke="rgb(221,221,221)" stroke-linejoin="round" d="M 13241,4586 L 2088,4586"/>
 <path fill="none" stroke="rgb(221,221,221)" stroke-linejoin="round" d="M 13241,3722 L 2088,3722"/>
 <path fill="none" stroke="rgb(221,221,221)" stroke-linejoin="round" d="M 13241,2858 L 2088,2858"/>
 <path fill="none" stroke="rgb(179,179,179)" stroke-linejoin="round" d="M 2088,9021 L 2088,8473"/>
 <path fill="none" stroke="rgb(179,179,179)" stroke-linejoin="round" d="M 4876,9021 L 4876,8473"/>
 <path fill="none" stroke="rgb(179,179,179)" stroke-linejoin="round" d="M 7664,9021 L 7664,8473"/>
 <path fill="none" stroke="rgb(179,179,179)" stroke-linejoin="round" d="M 10452,9021 L 10452,8473"/>
 <path fill="none" stroke="rgb(179,179,179)" stroke-linejoin="round" d="M 13241,9021 L 13241,8473"/>
 <path fill="none" stroke="rgb(179,179,179)" stroke-linejoin="round" d="M 2088,9419 L 2088,8473"/>
 <path fill="none" stroke="rgb(179,179,179)" stroke-linejoin="round" d="M 4876,9419 L 4876,8473"/>
 <path fill="none" stroke="rgb(179,179,179)" stroke-linejoin="round" d="M 7664,9419 L 7664,8473"/>
 <path fill="none" stroke="rgb(179,179,179)" stroke-linejoin="round" d="M 10452,9419 L 10452,8473"/>
 <path fill="none" stroke="rgb(179,179,179)" stroke-linejoin="round" d="M 13241,9419 L 13241,8473"/>
 <path fill="none" stroke="rgb(179,179,179)" stroke-linejoin="round" d="M 2088,9817 L 2088,8473"/>
 <path fill="none" stroke="rgb(179,179,179)" stroke-linejoin="round" d="M 4876,9817 L 4876,8473"/>
 <path fill="none" stroke="rgb(179,179,179)" stroke-linejoin="round" d="M 7664,9817 L 7664,8473"/>
 <path fill="none" stroke="rgb(179,179,179)" stroke-linejoin="round" d="M 10452,9817 L 10452,8473"/>
 <path fill="none" stroke="rgb(179,179,179)" stroke-linejoin="round" d="M 13241,9817 L 13241,8473"/>
 <path fill="none" stroke="rgb(179,179,179)" stroke-linejoin="round" d="M 2088,10215 L 2088,8473"/>
 <path fill="none" stroke="rgb(179,179,179)" stroke-linejoin="round" d="M 4876,10215 L 4876,8473"/>
 <path fill="none" stroke="rgb(179,179,179)" stroke-linejoin="round" d="M 7664,10215 L 7664,8473"/>
 <path fill="none" stroke="rgb(179,179,179)" stroke-linejoin="round" d="M 10452,10215 L 10452,8473"/>
 <path fill="none" stroke="rgb(179,179,179)" stroke-linejoin="round" d="M 13241,10215 L 13241,8473"/>
 <path fill="none" stroke="rgb(179,179,179)" stroke-linejoin="round" d="M 2088,8623 L 2088,8473"/>
 <path fill="none" stroke="rgb(179,179,179)" stroke-linejoin="round" d="M 2088,8623 L 2088,8473"/>
 <path fill="none" stroke="rgb(179,179,179)" stroke-linejoin="round" d="M 4876,8623 L 4876,8473"/>
 <path fill="none" stroke="rgb(179,179,179)" stroke-linejoin="round" d="M 4876,8623 L 4876,8473"/>
 <path fill="none" stroke="rgb(179,179,179)" stroke-linejoin="round" d="M 7664,8623 L 7664,8473"/>
 <path fill="none" stroke="rgb(179,179,179)" stroke-linejoin="round" d="M 7664,8623 L 7664,8473"/>
 <path fill="none" stroke="rgb(179,179,179)" stroke-linejoin="round" d="M 10452,8623 L 10452,8473"/>
 <path fill="none" stroke="rgb(179,179,179)" stroke-linejoin="round" d="M 10452,8623 L 10452,8473"/>
 <path fill="none" stroke="rgb(179,179,179)" stroke-linejoin="round" d="M 13241,8623 L 13241,8473"/>
 <path fill="none" stroke="rgb(179,179,179)" stroke-linejoin="round" d="M 13241,8623 L 13241,8473"/>
 <path fill="none" stroke="rgb(179,179,179)" stroke-linejoin="round" d="M 2088,8473 L 13241,8473"/>
 <path fill="none" stroke="rgb(179,179,179)" stroke-linejoin="round" d="M 1938,8473 L 2088,8473"/>
 <path fill="none" stroke="rgb(179,179,179)" stroke-linejoin="round" d="M 1938,8473 L 2088,8473"/>
 <path fill="none" stroke="rgb(179,179,179)" stroke-linejoin="round" d="M 1938,7609 L 2088,7609"/>
 <path fill="none" stroke="rgb(179,179,179)" stroke-linejoin="round" d="M 1938,7609 L 2088,7609"/>
 <path fill="none" stroke="rgb(179,179,179)" stroke-linejoin="round" d="M 1938,6745 L 2088,6745"/>
 <path fill="none" stroke="rgb(179,179,179)" stroke-linejoin="round" d="M 1938,6745 L 2088,6745"/>
 <path fill="none" stroke="rgb(179,179,179)" stroke-linejoin="round" d="M 1938,5881 L 2088,5881"/>
 <path fill="none" stroke="rgb(179,179,179)" stroke-linejoin="round" d="M 1938,5881 L 2088,5881"/>
 <path fill="none" stroke="rgb(179,179,179)" stroke-linejoin="round" d="M 1938,5018 L 2088,5018"/>
 <path fill="none" stroke="rgb(179,179,179)" stroke-linejoin="round" d="M 1938,5018 L 2088,5018"/>
 <path fill="none" stroke="rgb(179,179,179)" stroke-linejoin="round" d="M 1938,4154 L 2088,4154"/>
 <path fill="none" stroke="rgb(179,179,179)" stroke-linejoin="round" d="M 1938,4154 L 2088,4154"/>
 <path fill="none" stroke="rgb(179,179,179)" stroke-linejoin="round" d="M 1938,3290 L 2088,3290"/>
 <path fill="none" stroke="rgb(179,179,179)" stroke-linejoin="round" d="M 1938,3290 L 2088,3290"/>
 <path fill="none" stroke="rgb(179,179,179)" stroke-linejoin="round" d="M 1938,2426 L 2088,2426"/>
 <path fill="none" stroke="rgb(179,179,179)" stroke-linejoin="round" d="M 1938,2426 L 2088,2426"/>
 <path fill="none" stroke="rgb(179,179,179)" stroke-linejoin="round" d="M 2088,8473 L 2088,2426"/>
 <path fill="rgb(255,66,14)" stroke="none" d="M 11149,8473 L 12543,8473 12543,7489 11149,7489 11149,8473 Z"/>
 <path fill="rgb(255,66,14)" stroke="none" d="M 8361,8473 L 9755,8473 9755,6792 8361,6792 8361,8473 Z"/>
 <path fill="rgb(255,66,14)" stroke="none" d="M 5573,8473 L 6966,8473 6966,5016 5573,5016 5573,8473 Z"/>
 <path fill="rgb(255,66,14)" stroke="none" d="M 2785,8473 L 4179,8473 4179,3272 2785,3272 2785,8473 Z"/>
 <text class="TextShape"><tspan class="TextParagraph" font-family="Liberation Sans, sans-serif" font-size="353px" font-weight="400"><tspan class="TextPosition" x="2834" y="9041"><tspan fill="rgb(0,0,0)" stroke="none">570x340</tspan></tspan></tspan></text>
 <text class="TextShape"><tspan class="TextParagraph" font-family="Liberation Sans, sans-serif" font-size="353px" font-weight="400"><tspan class="TextPosition" x="5622" y="9041"><tspan fill="rgb(0,0,0)" stroke="none">960x402</tspan></tspan></tspan></text>
 <text class="TextShape"><tspan class="TextParagraph" font-family="Liberation Sans, sans-serif" font-size="353px" font-weight="400"><tspan class="TextPosition" x="8318" y="9041"><tspan fill="rgb(0,0,0)" stroke="none">1280x720</tspan></tspan></tspan></text>
 <text class="TextShape"><tspan class="TextParagraph" font-family="Liberation Sans, sans-serif" font-size="353px" font-weight="400"><tspan class="TextPosition" x="11013" y="9041"><tspan fill="rgb(0,0,0)" stroke="none">1920x1080</tspan></tspan></tspan></text>
 <text class="TextShape"><tspan class="TextParagraph" font-family="Liberation Sans, sans-serif" font-size="353px" font-weight="400"><tspan class="TextPosition" x="2781" y="9439"><tspan fill="rgb(0,0,0)" stroke="none">(200kpix)</tspan></tspan></tspan></text>
 <text class="TextShape"><tspan class="TextParagraph" font-family="Liberation Sans, sans-serif" font-size="353px" font-weight="400"><tspan class="TextPosition" x="5569" y="9439"><tspan fill="rgb(0,0,0)" stroke="none">(400kpix)</tspan></tspan></tspan></text>
 <text class="TextShape"><tspan class="TextParagraph" font-family="Liberation Sans, sans-serif" font-size="353px" font-weight="400"><tspan class="TextPosition" x="8490" y="9439"><tspan fill="rgb(0,0,0)" stroke="none">(1Mpix)</tspan></tspan></tspan></text>
 <text class="TextShape"><tspan class="TextParagraph" font-family="Liberation Sans, sans-serif" font-size="353px" font-weight="400"><tspan class="TextPosition" x="11278" y="9439"><tspan fill="rgb(0,0,0)" stroke="none">(2Mpix)</tspan></tspan></tspan></text>
 <text class="TextShape"><tspan class="TextParagraph" font-family="Liberation Sans, sans-serif" font-size="353px" font-weight="400"><tspan class="TextPosition" x="2807" y="9837"><tspan fill="rgb(0,0,0)" stroke="none">Diamond</tspan></tspan></tspan></text>
 <text class="TextShape"><tspan class="TextParagraph" font-family="Liberation Sans, sans-serif" font-size="353px" font-weight="400"><tspan class="TextPosition" x="5595" y="9837"><tspan fill="rgb(0,0,0)" stroke="none">Diamond</tspan></tspan></tspan></text>
 <text class="TextShape"><tspan class="TextParagraph" font-family="Liberation Sans, sans-serif" font-size="353px" font-weight="400"><tspan class="TextPosition" x="8384" y="9837"><tspan fill="rgb(0,0,0)" stroke="none">Diamond</tspan></tspan></tspan></text>
 <text class="TextShape"><tspan class="TextParagraph" font-family="Liberation Sans, sans-serif" font-size="353px" font-weight="400"><tspan class="TextPosition" x="11172" y="9837"><tspan fill="rgb(0,0,0)" stroke="none">Diamond</tspan></tspan></tspan></text>
 <text class="TextShape"><tspan class="TextParagraph" font-family="Liberation Sans, sans-serif" font-size="353px" font-weight="400"><tspan class="TextPosition" x="3019" y="10235"><tspan fill="rgb(0,0,0)" stroke="none">16x16</tspan></tspan></tspan></text>
 <text class="TextShape"><tspan class="TextParagraph" font-family="Liberation Sans, sans-serif" font-size="353px" font-weight="400"><tspan class="TextPosition" x="5807" y="10235"><tspan fill="rgb(0,0,0)" stroke="none">16x16</tspan></tspan></tspan></text>
 <text class="TextShape"><tspan class="TextParagraph" font-family="Liberation Sans, sans-serif" font-size="353px" font-weight="400"><tspan class="TextPosition" x="8596" y="10235"><tspan fill="rgb(0,0,0)" stroke="none">24x24</tspan></tspan></tspan></text>
 <text class="TextShape"><tspan class="TextParagraph" font-family="Liberation Sans, sans-serif" font-size="353px" font-weight="400"><tspan class="TextPosition" x="11384" y="10235"><tspan fill="rgb(0,0,0)" stroke="none">32x32</tspan></tspan></tspan></text>
 <text class="TextShape"><tspan class="TextParagraph" font-family="Liberation Sans, sans-serif" font-size="353px" font-weight="400"><tspan class="TextPosition" x="1653" y="8594"><tspan fill="rgb(0,0,0)" stroke="none">0</tspan></tspan></tspan></text>
 <text class="TextShape"><tspan class="TextParagraph" font-family="Liberation Sans, sans-serif" font-size="353px" font-weight="400"><tspan class="TextPosition" x="1282" y="7730"><tspan fill="rgb(0,0,0)" stroke="none">100</tspan></tspan></tspan></text>
 <text class="TextShape"><tspan class="TextParagraph" font-family="Liberation Sans, sans-serif" font-size="353px" font-weight="400"><tspan class="TextPosition" x="1282" y="6866"><tspan fill="rgb(0,0,0)" stroke="none">200</tspan></tspan></tspan></text>
 <text class="TextShape"><tspan class="TextParagraph" font-family="Liberation Sans, sans-serif" font-size="353px" font-weight="400"><tspan class="TextPosition" x="1282" y="6002"><tspan fill="rgb(0,0,0)" stroke="none">300</tspan></tspan></tspan></text>
 <text class="TextShape"><tspan class="TextParagraph" font-family="Liberation Sans, sans-serif" font-size="353px" font-weight="400"><tspan class="TextPosition" x="1282" y="5138"><tspan fill="rgb(0,0,0)" stroke="none">400</tspan></tspan></tspan></text>
 <text class="TextShape"><tspan class="TextParagraph" font-family="Liberation Sans, sans-serif" font-size="353px" font-weight="400"><tspan class="TextPosition" x="1282" y="4274"><tspan fill="rgb(0,0,0)" stroke="none">500</tspan></tspan></tspan></text>
 <text class="TextShape"><tspan class="TextParagraph" font-family="Liberation Sans, sans-serif" font-size="353px" font-weight="400"><tspan class="TextPosition" x="1282" y="3410"><tspan fill="rgb(0,0,0)" stroke="none">600</tspan></tspan></tspan></text>
 <text class="TextShape"><tspan class="TextParagraph" font-family="Liberation Sans, sans-serif" font-size="353px" font-weight="400"><tspan class="TextPosition" x="1282" y="2546"><tspan fill="rgb(0,0,0)" stroke="none">700</tspan></tspan></tspan></text>
 <text class="TextShape"><tspan class="TextParagraph" font-family="Liberation Sans, sans-serif" font-size="353px" font-weight="400"><tspan class="TextPosition" x="3204" y="3094"><tspan fill="rgb(0,0,0)" stroke="none">602</tspan></tspan></tspan></text>
 <text class="TextShape"><tspan class="TextParagraph" font-family="Liberation Sans, sans-serif" font-size="353px" font-weight="400"><tspan class="TextPosition" x="5992" y="4838"><tspan fill="rgb(0,0,0)" stroke="none">400</tspan></tspan></tspan></text>
 <text class="TextShape"><tspan class="TextParagraph" font-family="Liberation Sans, sans-serif" font-size="353px" font-weight="400"><tspan class="TextPosition" x="8781" y="6614"><tspan fill="rgb(0,0,0)" stroke="none">195</tspan></tspan></tspan></text>
 <text class="TextShape"><tspan class="TextParagraph" font-family="Liberation Sans, sans-serif" font-size="353px" font-weight="400"><tspan class="TextPosition" x="11569" y="7311"><tspan fill="rgb(0,0,0)" stroke="none">114</tspan></tspan></tspan></text>
 <text class="TextShape"><tspan class="TextParagraph" font-family="Liberation Sans, sans-serif" font-size="459px" font-weight="400"><tspan class="TextPosition" x="2999" y="881"><tspan fill="rgb(0,0,0)" stroke="none">Motion Estimation and Rendering FPS</tspan></tspan></tspan></text>
 <text class="TextShape"><tspan class="TextParagraph" font-family="Liberation Sans, sans-serif" font-size="388px" font-weight="400"><tspan class="TextPosition" x="5565" y="1821"><tspan fill="rgb(0,0,0)" stroke="none">by Video Size</tspan></tspan></tspan></text>
 <text class="TextShape" transform="rotate(-90 837 6576)"><tspan class="TextParagraph" font-family="Liberation Sans, sans-serif" font-size="318px" font-weight="400"><tspan class="TextPosition" x="837" y="6576"><tspan fill="rgb(0,0,0)" stroke="none">FPS</tspan></tspan></tspan></text>
</svg>